HIERARCHY
ROOT Hips
{
	OFFSET -3.958830 18.904000 13.208200
	CHANNELS 6 Xposition Yposition Zposition Zrotation Yrotation Xrotation 
	JOINT LHipJoint
	{
		OFFSET 0.000000 0.000000 0.000000
		CHANNELS 3 Zrotation Yrotation Xrotation
		JOINT LeftUpLeg
		{
			OFFSET 1.800000 -1.400000 0.085000
			CHANNELS 3 Zrotation Yrotation Xrotation
			JOINT LeftLeg
			{
				OFFSET 2.215000 -6.000000 0.000000
				CHANNELS 3 Zrotation Yrotation Xrotation
				JOINT LeftFoot
				{
					OFFSET 2.500000 -6.900000 0.000000
					CHANNELS 3 Zrotation Yrotation Xrotation
					JOINT LeftToeBase
					{
						OFFSET 0.200000 -0.500000 1.950000
						CHANNELS 3 Zrotation Yrotation Xrotation
						End Site
						{
							OFFSET 0.000000 0.000000 0.000000
						}
					}
				}
			}
		}
	}
	JOINT RHipJoint
	{
		OFFSET 0.000000 0.000000 0.000000
		CHANNELS 3 Zrotation Yrotation Xrotation
		JOINT RightUpLeg
		{
			OFFSET -1.800000 -1.400000 0.085000
			CHANNELS 3 Zrotation Yrotation Xrotation
			JOINT RightLeg
			{
				OFFSET -2.215000 -6.000000 0.000000
				CHANNELS 3 Zrotation Yrotation Xrotation
				JOINT RightFoot
				{
					OFFSET -2.500000 -6.900000 0.000000
					CHANNELS 3 Zrotation Yrotation Xrotation
					JOINT RightToeBase
					{
						OFFSET -0.200000 -0.500000 1.950000
						CHANNELS 3 Zrotation Yrotation Xrotation
						End Site
						{
							OFFSET 0.000000 0.000000 0.000000
						}
					}
				}
			}
		}
	}
	JOINT LowerBack
	{
		OFFSET 0.000000 0.000000 0.000000
		CHANNELS 3 Zrotation Yrotation Xrotation
		JOINT Spine
		{
			OFFSET -0.087000 1.940000 -0.288900
			CHANNELS 3 Zrotation Yrotation Xrotation
			JOINT Spine1
			{
				OFFSET 0.000000 1.950000 0.060000
				CHANNELS 3 Zrotation Yrotation Xrotation
				JOINT Neck
				{
					OFFSET 0.000000 0.000000 0.000000
					CHANNELS 3 Zrotation Yrotation Xrotation
					JOINT Neck1
					{
						OFFSET 0.000000 1.600000 0.340000
						CHANNELS 3 Zrotation Yrotation Xrotation
						JOINT Head
						{
							OFFSET 0.000000 1.667000 -0.240000
							CHANNELS 3 Zrotation Yrotation Xrotation
							End Site
							{
								OFFSET 0.000000 0.000000 0.000000
							}
						}
					}
				}
				JOINT LeftShoulder
				{
					OFFSET 0.000000 0.000000 0.000000
					CHANNELS 3 Zrotation Yrotation Xrotation
					JOINT LeftArm
					{
						OFFSET 2.700000 1.550000 -0.730000
						CHANNELS 3 Zrotation Yrotation Xrotation
						JOINT LeftForeArm
						{
							OFFSET 5.450000 0.000000 0.000000
							CHANNELS 3 Zrotation Yrotation Xrotation
							JOINT LeftHand
							{
								OFFSET 3.450000 0.000000 0.000000
								CHANNELS 3 Zrotation Yrotation Xrotation
								JOINT LeftHandIndex1
								{
									OFFSET 0.750000 0.000000 0.000000
									CHANNELS 3 Zrotation Yrotation Xrotation
									End Site
									{
										OFFSET 0.000000 0.000000 0.000000
									}
								}
							}
						}
					}
				}
				JOINT RightShoulder
				{
					OFFSET 0.000000 0.000000 0.000000
					CHANNELS 3 Zrotation Yrotation Xrotation
					JOINT RightArm
					{
						OFFSET -2.700000 1.550000 -0.730000
						CHANNELS 3 Zrotation Yrotation Xrotation
						JOINT RightForeArm
						{
							OFFSET -5.450000 0.000000 0.000000
							CHANNELS 3 Zrotation Yrotation Xrotation
							JOINT RightHand
							{
								OFFSET -3.450000 0.000000 0.000000
								CHANNELS 3 Zrotation Yrotation Xrotation
								JOINT RightHandIndex1
								{
									OFFSET -0.750000 0.000000 0.000000
									CHANNELS 3 Zrotation Yrotation Xrotation
									End Site
									{
										OFFSET 0.000000 0.000000 0.000000
									}
								}
							}
						}
					}
				}
			}
		}
	}
}
MOTION
Frames: 8
Frame Time: 0.016667
0.425830 15.821850 -1.104350 1.072895 -3.302123 7.727866 -15.113055 12.622608 3.064943 0.842715 -3.763131 -18.852643 -13.456908 7.692557 17.979527 -1.131713 5.676563 2.998780 0.717560 -0.075220 0.451920 18.514642 -9.602145 3.486750 -2.832557 5.273844 -34.171680 8.093999 -2.799224 4.823570 0.199848 -2.019000 4.072702 0.389240 0.800410 0.315670 -4.041484 -2.228764 -7.304606 14.809158 -4.865334 7.988017 -4.916801 -3.139290 6.767787 0.263484 -6.822458 -8.455289 -11.511043 5.502048 17.579811 -3.983680 1.148480 -7.692240 -21.943801 -8.610183 2.758101 -29.520163 -8.351208 3.545407 -106.782310 -59.646854 65.730145 -4.304068 3.380464 0.681660 0.583370 -0.524200 0.515370 21.456099 10.838442 6.090163 27.906740 -3.577984 -6.903732 27.673734 39.667838 6.669890 1.194488 -1.816545 -0.658000 0.593590 0.057710 -0.509180 
0.447080 15.763250 -1.103750 1.259944 -3.156053 7.111344 -15.097483 12.625666 3.144695 1.121822 -3.967493 -18.880960 -14.506618 8.308716 19.298472 -1.056438 5.953264 2.881023 0.752620 -0.022780 0.474240 18.525072 -9.623158 3.469418 -2.763530 5.391250 -35.570170 7.041490 -3.128124 8.237768 0.192279 -1.995171 4.059691 0.410760 0.765440 0.301970 -4.069838 -2.243978 -7.350218 15.165807 -5.301016 9.155190 -5.111904 -3.369255 5.969899 0.154199 -7.260992 -8.237785 -12.283586 5.735999 17.394997 -3.756650 0.952510 -8.515340 -23.042065 -8.619783 2.383522 -28.899463 -8.331517 3.081252 -100.316261 -57.906384 58.265663 -4.244606 3.421541 0.685550 0.550440 -0.497930 0.520030 22.720617 11.059670 6.041480 27.290841 -3.639613 -7.134426 25.921443 40.121816 6.268954 1.200758 -1.818739 -0.638820 0.595530 0.031020 -0.502050 
0.472950 15.664760 -1.099050 1.489328 -2.512996 6.001833 -15.090170 12.623442 3.264924 1.806795 -4.388214 -19.099859 -15.887376 9.417207 21.895327 -0.899929 6.514183 2.677037 0.733770 -0.036770 0.452690 18.530555 -9.601462 3.503435 -2.833288 5.743111 -38.315176 5.043347 -3.813335 15.311814 0.169206 -2.255800 3.946343 0.389530 0.772840 0.301070 -4.073268 -2.328987 -7.466353 15.407224 -5.991335 11.033647 -5.174117 -3.755021 4.536526 0.160049 -7.491076 -8.059639 -12.729577 6.168145 17.356747 -3.568220 1.020250 -7.920090 -25.092666 -9.044131 2.126923 -28.361813 -7.678607 1.765590 -88.969289 -56.138053 47.582090 -4.203157 3.453275 0.664020 0.548060 -0.502130 0.524570 24.741035 11.523691 6.069393 26.491588 -3.858248 -7.587326 23.588798 41.393668 5.848969 1.204697 -1.842130 -0.624610 0.582830 0.028870 -0.482440 
0.499960 15.573790 -1.089350 1.875914 -1.943373 4.077389 -15.093330 12.598271 3.368874 2.588766 -4.737315 -18.427929 -17.685386 10.839699 24.506585 -0.703995 7.223906 2.421368 0.693150 -0.095780 0.468790 18.530025 -9.506463 3.623235 -4.256198 6.128826 -41.188557 3.857273 -5.133511 24.905834 0.023410 -3.218779 3.575339 0.333600 0.739380 0.297430 -4.053883 -2.471390 -7.695504 15.426807 -6.647957 13.751236 -5.678332 -4.037156 2.629786 0.587657 -7.330494 -7.628512 -12.652780 6.336633 18.645736 -4.385960 1.698260 -7.685460 -28.223902 -9.623030 1.486286 -27.875142 -7.225420 0.050055 -71.873135 -50.365852 31.912089 -4.108174 3.413668 0.687220 0.526180 -0.479680 0.496910 26.913590 11.850912 6.101467 26.676678 -3.955300 -8.572145 21.054006 43.718707 5.472073 1.217489 -1.831209 -0.623300 0.558780 0.030510 -0.498490 
0.518960 15.489290 -1.079740 2.375506 -1.587193 2.356669 -15.119951 12.464381 3.408104 2.946684 -5.111368 -18.081509 -18.936088 12.306056 27.478444 -0.510446 7.939731 2.151718 0.620270 -0.195750 0.468250 18.544361 -9.257422 3.894962 -6.376353 6.830611 -44.598718 3.039260 -6.849298 35.282658 -0.227833 -4.797324 2.986892 0.252200 0.702530 0.309680 -4.031638 -2.599269 -7.989979 15.073286 -6.989631 15.836523 -6.506857 -4.117898 1.090916 1.289929 -6.755234 -7.259758 -11.926891 6.481489 20.742778 -5.458590 2.693200 -7.182360 -30.877602 -10.117579 1.153020 -28.901815 -6.400176 -1.630218 -55.154955 -43.145542 18.785059 -4.047377 3.330776 0.717630 0.509790 -0.460300 0.442850 28.032426 12.001718 5.871257 28.851611 -2.569562 -9.247003 17.176578 42.614853 4.098378 1.260056 -1.736802 -0.621690 0.512750 0.066220 -0.525200 
0.528390 15.429640 -1.062140 2.618044 -1.035998 -0.002118 -15.143599 12.438512 3.437057 3.697164 -5.311746 -17.258311 -19.638530 13.818742 30.659003 -0.291291 8.650071 1.889584 0.561450 -0.295460 0.511360 18.535463 -9.083620 4.067527 -8.231890 7.318668 -45.881387 2.178086 -8.475247 44.396766 -0.535326 -6.370747 2.445585 0.154560 0.612970 0.288490 -3.979133 -2.804329 -8.295745 14.798321 -7.382626 18.145470 -7.351662 -4.271928 -0.361287 2.210803 -6.156629 -7.125167 -11.509315 6.504148 24.741031 -6.646040 3.820660 -6.996190 -33.461293 -10.589682 1.045047 -30.606703 -5.646499 -2.842390 -39.169971 -34.352694 8.883248 -3.936030 3.175944 0.788730 0.442720 -0.410130 0.383250 28.610889 12.245826 5.711323 31.898607 -1.005963 -9.919122 13.858594 40.721008 2.881450 1.341484 -1.596392 -0.622710 0.471140 0.072070 -0.571080 
0.533000 15.385600 -1.048070 3.003731 -0.361104 -2.130999 -15.163022 12.410301 3.468549 4.319268 -5.418082 -16.604160 -20.298576 15.245999 33.383143 -0.080861 9.282949 1.650888 0.558510 -0.320110 0.557200 18.527353 -8.954784 4.161802 -10.409482 7.626032 -46.087708 1.824727 -10.297763 52.493335 -0.887648 -7.928586 1.924547 0.098820 0.524900 0.310300 -3.938158 -2.954763 -8.547877 14.481826 -7.639329 19.871400 -8.261018 -4.509158 -1.798506 2.962605 -5.434856 -6.755355 -10.742049 6.540676 28.365869 -7.862740 4.742290 -6.858230 -36.760317 -10.522097 0.888241 -31.419282 -4.592544 -3.053950 -26.417830 -24.317775 2.866901 -3.857017 3.066385 0.828320 0.394420 -0.350920 0.350050 30.239706 11.739096 5.355858 33.983033 -0.964333 -11.013867 14.024719 42.310601 2.959014 1.378066 -1.585630 -0.580150 0.402900 0.058290 -0.595150 
0.527310 15.359460 -1.027040 3.181567 0.477296 -3.956219 -15.136854 12.387977 3.425312 4.595947 -5.257356 -16.265557 -19.500764 16.165646 36.194660 0.105904 9.664683 1.502805 0.583850 -0.273190 0.574360 18.556396 -8.956953 4.204571 -12.480833 8.012750 -45.312827 1.605283 -12.025180 59.533690 -1.235320 -9.297892 1.509540 0.074600 0.448580 0.317540 -4.021302 -2.868013 -8.683712 14.731670 -7.860734 20.533329 -9.583329 -4.848506 -2.657423 3.451252 -4.800390 -6.432982 -9.964962 6.511048 31.748582 -7.949000 4.876210 -6.618110 -38.981177 -9.934792 1.009123 -31.772729 -2.703620 -2.770816 -17.756064 -16.044784 0.101756 -3.808745 2.967645 0.823890 0.346920 -0.294860 0.345670 31.259857 10.775366 4.718791 37.093925 -0.473691 -12.121446 15.162099 45.076718 3.390106 1.421779 -1.598597 -0.507320 0.347140 0.020310 -0.578560 
